<svg width="100" height="50" viewBox="0 0 100 50" fill="none" xmlns="http://www.w3.org/2000/svg">
<path d="M3.144 7.656L1.248 7.368V6.168H7.776V7.368L5.712 7.656V14.112H14.16V7.656L12.216 7.368V6.168H18.648V7.368L16.752 7.656V22.584L18.648 22.824V24H12.192V22.824L14.16 22.584V15.6H5.712V22.584L7.8 22.824V24H1.2V22.824L3.144 22.584V7.656ZM20.235 17.304C20.235 15.864 20.531 14.616 21.123 13.56C21.715 12.504 22.491 11.704 23.451 11.16C24.427 10.6 25.467 10.32 26.571 10.32C28.587 10.32 30.099 10.96 31.107 12.24C32.131 13.52 32.643 15.2 32.643 17.28C32.643 18.736 32.347 19.992 31.755 21.048C31.163 22.104 30.379 22.904 29.403 23.448C28.443 23.992 27.411 24.264 26.307 24.264C24.291 24.264 22.771 23.624 21.747 22.344C20.739 21.064 20.235 19.384 20.235 17.304ZM26.451 22.896C27.555 22.896 28.403 22.44 28.995 21.528C29.587 20.616 29.883 19.264 29.883 17.472C29.883 15.696 29.611 14.288 29.067 13.248C28.523 12.208 27.651 11.688 26.451 11.688C25.347 11.688 24.491 12.144 23.883 13.056C23.291 13.968 22.995 15.32 22.995 17.112C22.995 18.888 23.275 20.296 23.835 21.336C24.395 22.376 25.267 22.896 26.451 22.896ZM38.2206 24.24C37.3086 24.24 36.6286 24.032 36.1806 23.616C35.7326 23.2 35.5086 22.488 35.5086 21.48V12.264H33.7806V11.184C33.8606 11.168 34.0846 11.112 34.4526 11.016C34.8206 10.92 35.0686 10.832 35.1966 10.752C35.4526 10.608 35.6526 10.32 35.7966 9.888C35.9246 9.584 36.0766 9.096 36.2526 8.424C36.4286 7.752 36.5326 7.352 36.5646 7.224H37.9806L38.0286 10.68H42.0366V12.264H38.0286V19.632C38.0286 20.544 38.0526 21.184 38.1006 21.552C38.1646 21.92 38.2846 22.16 38.4606 22.272C38.6526 22.384 38.9726 22.44 39.4206 22.44C39.8526 22.44 40.3246 22.384 40.8366 22.272C41.3646 22.16 41.7726 22.04 42.0606 21.912L42.4206 22.992C42.0366 23.28 41.4126 23.56 40.5486 23.832C39.7006 24.104 38.9246 24.24 38.2206 24.24ZM49.074 24.264C47.138 24.264 45.658 23.632 44.634 22.368C43.626 21.104 43.122 19.416 43.122 17.304C43.122 15.912 43.386 14.688 43.914 13.632C44.442 12.576 45.178 11.76 46.122 11.184C47.082 10.608 48.17 10.32 49.386 10.32C50.874 10.32 52.026 10.736 52.842 11.568C53.674 12.384 54.114 13.56 54.162 15.096C54.162 16.072 54.106 16.816 53.994 17.328H45.738C45.77 18.912 46.138 20.192 46.842 21.168C47.546 22.128 48.546 22.608 49.842 22.608C50.482 22.608 51.146 22.496 51.834 22.272C52.538 22.032 53.082 21.752 53.466 21.432L53.922 22.488C53.458 22.968 52.77 23.384 51.858 23.736C50.946 24.088 50.018 24.264 49.074 24.264ZM51.522 16.056C51.57 15.72 51.594 15.376 51.594 15.024C51.578 13.984 51.354 13.168 50.922 12.576C50.506 11.968 49.842 11.664 48.93 11.664C48.002 11.664 47.258 12 46.698 12.672C46.154 13.344 45.842 14.472 45.762 16.056H51.522ZM57.2567 6.096L55.3127 5.832V4.8L59.1767 4.344H59.2247L59.7527 4.704V22.632L61.7927 22.824V24H55.3127V22.824L57.2567 22.608V6.096ZM64.5289 6.096L62.5849 5.832V4.8L66.4489 4.344H66.4969L67.0249 4.704V22.632L69.0649 22.824V24H62.5849V22.824L64.5289 22.608V6.096ZM70.0491 17.304C70.0491 15.864 70.3451 14.616 70.9371 13.56C71.5291 12.504 72.3051 11.704 73.2651 11.16C74.2411 10.6 75.2811 10.32 76.3851 10.32C78.4011 10.32 79.9131 10.96 80.9211 12.24C81.9451 13.52 82.4571 15.2 82.4571 17.28C82.4571 18.736 82.1611 19.992 81.5691 21.048C80.9771 22.104 80.1931 22.904 79.2171 23.448C78.2571 23.992 77.2251 24.264 76.1211 24.264C74.1051 24.264 72.5851 23.624 71.5611 22.344C70.5531 21.064 70.0491 19.384 70.0491 17.304ZM76.2651 22.896C77.3691 22.896 78.2171 22.44 78.8091 21.528C79.4011 20.616 79.6971 19.264 79.6971 17.472C79.6971 15.696 79.4251 14.288 78.8811 13.248C78.3371 12.208 77.4651 11.688 76.2651 11.688C75.1611 11.688 74.3051 12.144 73.6971 13.056C73.1051 13.968 72.8091 15.32 72.8091 17.112C72.8091 18.888 73.0891 20.296 73.6491 21.336C74.2091 22.376 75.0811 22.896 76.2651 22.896Z" fill="black"/>
<path d="M87.728 28.08C87.424 28.08 87.1973 28.0107 87.048 27.872C86.8987 27.7333 86.824 27.496 86.824 27.16V24.088H86.248V23.728C86.2747 23.7227 86.3493 23.704 86.472 23.672C86.5947 23.64 86.6773 23.6107 86.72 23.584C86.8053 23.536 86.872 23.44 86.92 23.296C86.9627 23.1947 87.0133 23.032 87.072 22.808C87.1307 22.584 87.1653 22.4507 87.176 22.408H87.648L87.664 23.56H89V24.088H87.664V26.544C87.664 26.848 87.672 27.0613 87.688 27.184C87.7093 27.3067 87.7493 27.3867 87.808 27.424C87.872 27.4613 87.9787 27.48 88.128 27.48C88.272 27.48 88.4293 27.4613 88.6 27.424C88.776 27.3867 88.912 27.3467 89.008 27.304L89.128 27.664C89 27.76 88.792 27.8533 88.504 27.944C88.2213 28.0347 87.9627 28.08 87.728 28.08ZM89.3698 27.608L89.8578 27.536V24.176L89.2818 24.032V23.6L90.4258 23.456L90.5698 23.56L90.6178 23.88L90.6098 24.136C90.7965 23.9653 91.0498 23.8107 91.3698 23.672C91.6951 23.528 91.9858 23.456 92.2418 23.456C92.5298 23.456 92.7618 23.504 92.9378 23.6C93.1138 23.696 93.2471 23.8453 93.3378 24.048C93.5085 23.904 93.7458 23.7707 94.0498 23.648C94.3591 23.52 94.6471 23.456 94.9138 23.456C95.2445 23.456 95.5031 23.52 95.6898 23.648C95.8765 23.7707 96.0071 23.9653 96.0818 24.232C96.1618 24.4933 96.2018 24.8453 96.2018 25.288V27.536L96.7778 27.608V28H94.8738V27.608L95.3698 27.536V25.312C95.3698 25.0027 95.3458 24.7573 95.2978 24.576C95.2551 24.3893 95.1698 24.2507 95.0418 24.16C94.9191 24.0693 94.7405 24.024 94.5058 24.024C94.3298 24.024 94.1431 24.064 93.9458 24.144C93.7485 24.2187 93.5805 24.3093 93.4418 24.416C93.4898 24.624 93.5138 24.92 93.5138 25.304V27.536L94.0818 27.608V28H92.1458V27.608L92.6738 27.536V25.296C92.6738 24.976 92.6525 24.728 92.6098 24.552C92.5725 24.376 92.4978 24.2453 92.3858 24.16C92.2738 24.0693 92.1031 24.024 91.8738 24.024C91.6818 24.024 91.4765 24.072 91.2578 24.168C91.0445 24.264 90.8578 24.376 90.6978 24.504V27.536L91.2338 27.608V28H89.3698V27.608Z" fill="#4F4940"/>
<rect y="32" width="100" height="1" fill="url(#paint0_linear_1_39)"/>
<path d="M1.572 38.828L0.6 38.684V38.084H4.044V38.684L2.856 38.828V46.292L5.952 46.184L6.66 44.168L7.392 44.276L6.972 47H0.576V46.412L1.572 46.292V38.828ZM22.0175 47.096C20.8415 47.096 19.9735 46.784 19.4135 46.16C18.8615 45.528 18.5855 44.552 18.5855 43.232V38.828L17.7335 38.684V38.084H20.9375V38.684L19.9175 38.84V43.364C19.9175 44.452 20.1095 45.236 20.4935 45.716C20.8855 46.196 21.4455 46.436 22.1735 46.436C22.9015 46.436 23.4455 46.18 23.8055 45.668C24.1735 45.156 24.3575 44.412 24.3575 43.436V38.84L23.3495 38.684V38.084H26.1455V38.684L25.2695 38.828V43.376C25.2695 44.624 24.9735 45.556 24.3815 46.172C23.7895 46.788 23.0015 47.096 22.0175 47.096ZM39.8043 42.548L37.3083 38.84L36.4203 38.684V38.084H39.9963V38.684L38.8563 38.84L40.7283 41.876L42.6003 38.828L41.5443 38.684V38.084H44.4963V38.684L43.5363 38.84L41.1003 42.32L43.7763 46.292L44.6883 46.412V47H41.1243V46.412L42.2403 46.292L40.2003 43.016L38.2443 46.292L39.4443 46.412V47H36.2523V46.412L37.2723 46.292L39.8043 42.548ZM59.1233 47.096C57.9473 47.096 57.0793 46.784 56.5193 46.16C55.9673 45.528 55.6913 44.552 55.6913 43.232V38.828L54.8393 38.684V38.084H58.0433V38.684L57.0233 38.84V43.364C57.0233 44.452 57.2153 45.236 57.5993 45.716C57.9913 46.196 58.5513 46.436 59.2793 46.436C60.0073 46.436 60.5513 46.18 60.9113 45.668C61.2793 45.156 61.4633 44.412 61.4633 43.436V38.84L60.4553 38.684V38.084H63.2513V38.684L62.3753 38.828V43.376C62.3753 44.624 62.0793 45.556 61.4873 46.172C60.8953 46.788 60.1073 47.096 59.1233 47.096ZM73.8261 46.412L74.8221 46.292V38.828L73.8861 38.672V38.084H75.4581C75.6821 38.084 75.9861 38.068 76.3701 38.036C76.7701 38.004 77.0821 37.988 77.3061 37.988C78.4821 37.988 79.3181 38.18 79.8141 38.564C80.3181 38.94 80.5701 39.536 80.5701 40.352C80.5701 40.92 80.4101 41.44 80.0901 41.912C79.7781 42.384 79.3461 42.704 78.7941 42.872C79.0501 43.008 79.2861 43.244 79.5021 43.58C79.7261 43.908 79.9981 44.368 80.3181 44.96C80.5661 45.408 80.7541 45.736 80.8821 45.944C81.0181 46.152 81.1461 46.268 81.2661 46.292L81.7341 46.412V47H80.0781C79.9501 47 79.8061 46.864 79.6461 46.592C79.4861 46.312 79.2741 45.884 79.0101 45.308C78.7221 44.676 78.4701 44.176 78.2541 43.808C78.0461 43.432 77.8381 43.192 77.6301 43.088C76.7741 43.088 76.2661 43.084 76.1061 43.076V46.292L77.2941 46.412V47H73.8261V46.412ZM77.5341 42.44C78.0461 42.44 78.4501 42.272 78.7461 41.936C79.0421 41.6 79.1901 41.1 79.1901 40.436C79.1901 39.852 79.0381 39.408 78.7341 39.104C78.4381 38.792 77.9221 38.636 77.1861 38.636C76.9301 38.636 76.6741 38.652 76.4181 38.684C76.2581 38.7 76.1541 38.708 76.1061 38.708V42.428C76.2261 42.436 76.4741 42.44 76.8501 42.44H77.5341ZM94.8393 43.532L92.1393 38.84L91.4193 38.684V38.084H94.5513V38.684L93.6033 38.828L95.2953 42.044L95.6793 42.956L96.1113 42.044L97.7073 38.828L96.7233 38.684V38.084H99.4593V38.684L98.6793 38.828L96.1713 43.52V46.28L97.5153 46.412V47H93.5313V46.412L94.8393 46.292V43.532Z" fill="#4F4940"/>
<defs>
<linearGradient id="paint0_linear_1_39" x1="0" y1="32" x2="100" y2="32" gradientUnits="userSpaceOnUse">
<stop stop-color="#26231C"/>
<stop offset="1" stop-color="#26231C" stop-opacity="0"/>
</linearGradient>
</defs>
</svg>
