<svg width="119" height="27" viewBox="0 0 119 27" fill="none" xmlns="http://www.w3.org/2000/svg">
<g clip-path="url(#clip0_77_1311)">
<path fill-rule="evenodd" clip-rule="evenodd" d="M113 26.5215H6C2.686 26.5215 0 23.8355 0 20.5215V6.52153C0 3.20753 2.686 0.52153 6 0.52153H113C116.314 0.52153 119 3.20753 119 6.52153V20.5215C119 23.8355 116.314 26.5215 113 26.5215ZM118 6.52153C118 3.76053 115.761 1.52153 113 1.52153H6C3.239 1.52153 1 3.76053 1 6.52153V20.5215C1 23.2825 3.239 25.5215 6 25.5215H113C115.761 25.5215 118 23.2825 118 20.5215V6.52153Z" fill="#32364E"/>
<path fill-rule="evenodd" clip-rule="evenodd" d="M60.6998 18.9585H59.3948L60.4048 16.4645L58.3948 11.3925H59.7738L61.0368 14.8445L62.3098 11.3925H63.6888L60.6998 18.9585ZM55.6898 16.7805C55.2378 16.7805 54.7738 16.6125 54.3538 16.2855V16.6545H53.0068V9.08753H54.3538V11.7505C54.7738 11.4345 55.2378 11.2665 55.6898 11.2665C57.0998 11.2665 58.0678 12.4025 58.0678 14.0235C58.0678 15.6435 57.0998 16.7805 55.6898 16.7805ZM55.4058 12.4235C55.0378 12.4235 54.6688 12.5815 54.3538 12.8975V15.1495C54.6688 15.4645 55.0378 15.6225 55.4058 15.6225C56.1638 15.6225 56.6898 14.9705 56.6898 14.0235C56.6898 13.0765 56.1638 12.4235 55.4058 12.4235ZM47.5538 16.2855C47.1438 16.6125 46.6808 16.7805 46.2178 16.7805C44.8178 16.7805 43.8398 15.6435 43.8398 14.0235C43.8398 12.4025 44.8178 11.2665 46.2178 11.2665C46.6808 11.2665 47.1438 11.4345 47.5538 11.7505V9.08753H48.9118V16.6545H47.5538V16.2855ZM47.5538 12.8975C47.2488 12.5815 46.8808 12.4235 46.5128 12.4235C45.7438 12.4235 45.2178 13.0765 45.2178 14.0235C45.2178 14.9705 45.7438 15.6225 46.5128 15.6225C46.8808 15.6225 47.2488 15.4645 47.5538 15.1495V12.8975ZM39.5348 14.3915C39.6188 15.1915 40.2508 15.7385 41.1338 15.7385C41.6188 15.7385 42.1548 15.5595 42.7018 15.2435V16.3705C42.1028 16.6435 41.5028 16.7805 40.9128 16.7805C39.3238 16.7805 38.2088 15.6225 38.2088 13.9815C38.2088 12.3925 39.3028 11.2665 40.8078 11.2665C42.1868 11.2665 43.1228 12.3505 43.1228 13.8965C43.1228 14.0445 43.1228 14.2125 43.1018 14.3915H39.5348ZM40.7558 12.3075C40.1028 12.3075 39.5978 12.7925 39.5348 13.5185H41.8288C41.7868 12.8025 41.3558 12.3075 40.7558 12.3075ZM35.9878 13.1395V16.6545H34.6408V11.3925H35.9878V11.9185C36.3668 11.4975 36.8298 11.2665 37.2818 11.2665C37.4298 11.2665 37.5768 11.2765 37.7238 11.3185V12.5185C37.5768 12.4765 37.4088 12.4555 37.2508 12.4555C36.8088 12.4555 36.3348 12.6975 35.9878 13.1395ZM29.9788 14.3915C30.0628 15.1915 30.6938 15.7385 31.5778 15.7385C32.0618 15.7385 32.5988 15.5595 33.1458 15.2435V16.3705C32.5458 16.6435 31.9458 16.7805 31.3568 16.7805C29.7678 16.7805 28.6528 15.6225 28.6528 13.9815C28.6528 12.3925 29.7468 11.2665 31.2518 11.2665C32.6298 11.2665 33.5668 12.3505 33.5668 13.8965C33.5668 14.0445 33.5668 14.2125 33.5458 14.3915H29.9788ZM31.1988 12.3075C30.5468 12.3075 30.0418 12.7925 29.9788 13.5185H32.2728C32.2308 12.8025 31.7988 12.3075 31.1988 12.3075ZM25.2738 16.6545L24.1998 13.0765L23.1368 16.6545H21.9268L20.1168 11.3925H21.4638L22.5268 14.9705L23.5898 11.3925H24.8098L25.8728 14.9705L26.9358 11.3925H28.2828L26.4838 16.6545H25.2738ZM17.0428 16.7805C15.4538 16.7805 14.3278 15.6335 14.3278 14.0235C14.3278 12.4025 15.4538 11.2665 17.0428 11.2665C18.6318 11.2665 19.7478 12.4025 19.7478 14.0235C19.7478 15.6335 18.6318 16.7805 17.0428 16.7805ZM17.0428 12.3925C16.2538 12.3925 15.7068 13.0555 15.7068 14.0235C15.7068 14.9915 16.2538 15.6545 17.0428 15.6545C17.8218 15.6545 18.3688 14.9915 18.3688 14.0235C18.3688 13.0555 17.8218 12.3925 17.0428 12.3925ZM11.1278 14.0545H9.9178V16.6545H8.5708V9.41353H11.1278C12.6018 9.41353 13.6538 10.3715 13.6538 11.7395C13.6538 13.1075 12.6018 14.0545 11.1278 14.0545ZM10.9388 10.5085H9.9178V12.9605H10.9388C11.7178 12.9605 12.2648 12.4655 12.2648 11.7395C12.2648 11.0035 11.7178 10.5085 10.9388 10.5085Z" fill="#32364E"/>
<path fill-rule="evenodd" clip-rule="evenodd" d="M111.116 14.5725H105.557C105.684 15.9035 106.659 16.2955 107.766 16.2955C108.893 16.2955 109.781 16.0575 110.555 15.6675V17.9545C109.784 18.3825 108.765 18.6905 107.408 18.6905C104.642 18.6905 102.704 16.9585 102.704 13.5345C102.704 10.6425 104.348 8.34653 107.049 8.34653C109.746 8.34653 111.154 10.6415 111.154 13.5495C111.154 13.8245 111.129 14.4195 111.116 14.5725ZM107.031 10.6615C106.321 10.6615 105.532 11.1975 105.532 12.4765H108.468C108.468 11.1985 107.728 10.6615 107.031 10.6615ZM98.1079 18.6905C97.1139 18.6905 96.5069 18.2715 96.0989 17.9725L96.0929 21.1855L93.2539 21.7895L93.2529 8.53553H95.7529L95.9009 9.23653C96.2929 8.87053 97.0119 8.34653 98.1249 8.34653C100.119 8.34653 101.997 10.1425 101.997 13.4485C101.997 17.0565 100.139 18.6905 98.1079 18.6905ZM97.4459 10.8615C96.7949 10.8615 96.3859 11.0995 96.0899 11.4245L96.1069 15.6435C96.3829 15.9425 96.7799 16.1825 97.4459 16.1825C98.4959 16.1825 99.1999 15.0395 99.1999 13.5105C99.1999 12.0255 98.4849 10.8615 97.4459 10.8615ZM89.1489 8.53553H91.9989V18.4875H89.1489V8.53553ZM89.1489 5.35753L91.9989 4.75153V7.06453L89.1489 7.67053V5.35753ZM86.1099 11.7405V18.4875H83.2719V8.53553H85.7269L85.9049 9.37453C86.5699 8.15253 87.8969 8.40053 88.2749 8.53653V11.1465C87.9139 11.0295 86.7809 10.8595 86.1099 11.7405ZM80.0239 14.9965C80.0239 16.6695 81.8159 16.1485 82.1789 16.0035V18.3145C81.8009 18.5225 81.1149 18.6905 80.1869 18.6905C78.5019 18.6905 77.2369 17.4495 77.2369 15.7685L77.2499 6.65953L80.0219 6.06953L80.0239 8.53553H82.1799V10.9565H80.0239V14.9965ZM76.4849 15.4805C76.4849 17.5245 74.8579 18.6905 72.4969 18.6905C71.5179 18.6905 70.4479 18.5005 69.3919 18.0465V15.3355C70.3449 15.8535 71.5589 16.2425 72.4999 16.2425C73.1329 16.2425 73.5889 16.0725 73.5889 15.5475C73.5889 14.1925 69.2729 14.7025 69.2729 11.5595C69.2729 9.54953 70.8079 8.34653 73.1109 8.34653C74.0519 8.34653 74.9919 8.49053 75.9329 8.86553V11.5405C75.0689 11.0735 73.9719 10.8095 73.1089 10.8095C72.5139 10.8095 72.1439 10.9815 72.1439 11.4245C72.1439 12.7025 76.4849 12.0945 76.4849 15.4805Z" fill="#32364E"/>
</g>
<defs>
<clipPath id="clip0_77_1311">
<rect width="119" height="26" fill="white" transform="translate(0 0.52153)"/>
</clipPath>
</defs>
</svg>
