<svg width="232" height="86" viewBox="0 0 232 86" fill="none" xmlns="http://www.w3.org/2000/svg">
<path d="M16 22.6595L22.9524 20.9308L25.8571 29.7143L16 22.6595ZM32 11.3064H19.7619L16 0L12.2381 11.3064H0L9.90477 18.3145L6.14285 29.6208L16.0476 22.6128L22.1429 18.3145L32 11.3064Z" fill="#219653"/>
<path d="M43.627 7.63843V21.8572H40.707V7.63843H43.627ZM48.002 7.63843V9.93335H36.4004V7.63843H48.002ZM51.625 13.5955V21.8572H48.8125V11.2908H51.459L51.625 13.5955ZM54.8086 11.2224L54.7598 13.8298C54.623 13.8103 54.457 13.794 54.2617 13.781C54.0729 13.7615 53.9004 13.7517 53.7441 13.7517C53.347 13.7517 53.002 13.8038 52.709 13.908C52.4225 14.0056 52.1816 14.1521 51.9863 14.3474C51.7975 14.5427 51.6543 14.7804 51.5566 15.0603C51.4655 15.3403 51.4134 15.6593 51.4004 16.0173L50.834 15.8416C50.834 15.158 50.9023 14.5297 51.0391 13.9568C51.1758 13.3774 51.3743 12.8728 51.6348 12.4431C51.9017 12.0134 52.2272 11.6814 52.6113 11.447C52.9954 11.2126 53.4349 11.0955 53.9297 11.0955C54.0859 11.0955 54.2454 11.1085 54.4082 11.1345C54.571 11.1541 54.7044 11.1833 54.8086 11.2224ZM62.3867 19.3279V11.2908H65.1992V21.8572H62.5527L62.3867 19.3279ZM62.6992 17.1599L63.5293 17.1404C63.5293 17.8435 63.4479 18.4978 63.2852 19.1033C63.1224 19.7022 62.8783 20.2231 62.5527 20.6658C62.2272 21.102 61.8171 21.4438 61.3223 21.6912C60.8275 21.932 60.2448 22.0525 59.5742 22.0525C59.0599 22.0525 58.5846 21.9809 58.1484 21.8376C57.7188 21.6879 57.3477 21.4568 57.0352 21.1443C56.7292 20.8253 56.4883 20.4184 56.3125 19.9236C56.1432 19.4223 56.0586 18.8201 56.0586 18.1169V11.2908H58.8711V18.1365C58.8711 18.449 58.9069 18.7126 58.9785 18.9275C59.0566 19.1423 59.1641 19.3181 59.3008 19.4548C59.4375 19.5916 59.597 19.6892 59.7793 19.7478C59.9681 19.8064 60.1764 19.8357 60.4043 19.8357C60.9837 19.8357 61.4395 19.7185 61.7715 19.4841C62.11 19.2498 62.3477 18.9307 62.4844 18.5271C62.6276 18.1169 62.6992 17.6612 62.6992 17.1599ZM73.0605 18.9373C73.0605 18.7354 73.002 18.5531 72.8848 18.3904C72.7676 18.2276 72.5495 18.0779 72.2305 17.9412C71.918 17.7979 71.4655 17.6677 70.873 17.5505C70.3392 17.4333 69.8411 17.2869 69.3789 17.1111C68.9232 16.9288 68.526 16.7107 68.1875 16.4568C67.8555 16.2029 67.5951 15.9034 67.4062 15.5583C67.2174 15.2068 67.123 14.8064 67.123 14.3572C67.123 13.9145 67.2174 13.4978 67.4062 13.1072C67.6016 12.7166 67.8783 12.3715 68.2363 12.072C68.6009 11.766 69.0436 11.5284 69.5645 11.3591C70.0918 11.1833 70.6842 11.0955 71.3418 11.0955C72.2598 11.0955 73.0475 11.2419 73.7051 11.5349C74.3691 11.8279 74.877 12.2315 75.2285 12.7458C75.5866 13.2537 75.7656 13.8331 75.7656 14.4841H72.9531C72.9531 14.2107 72.8945 13.9666 72.7773 13.7517C72.6667 13.5304 72.4909 13.3578 72.25 13.2341C72.0156 13.1039 71.7096 13.0388 71.332 13.0388C71.0195 13.0388 70.7493 13.0942 70.5215 13.2048C70.2936 13.309 70.1178 13.4522 69.9941 13.6345C69.877 13.8103 69.8184 14.0056 69.8184 14.2205C69.8184 14.3832 69.8509 14.5297 69.916 14.6599C69.9876 14.7836 70.1016 14.8975 70.2578 15.0017C70.4141 15.1059 70.6159 15.2035 70.8633 15.2947C71.1172 15.3793 71.4297 15.4574 71.8008 15.5291C72.5625 15.6853 73.2428 15.8904 73.8418 16.1443C74.4408 16.3917 74.916 16.7302 75.2676 17.1599C75.6191 17.5831 75.7949 18.1397 75.7949 18.8298C75.7949 19.2986 75.6908 19.7283 75.4824 20.1189C75.2741 20.5095 74.9746 20.8513 74.584 21.1443C74.1934 21.4307 73.7246 21.6554 73.1777 21.8181C72.6374 21.9744 72.0286 22.0525 71.3516 22.0525C70.3685 22.0525 69.5352 21.8767 68.8516 21.5251C68.1745 21.1736 67.6602 20.7276 67.3086 20.1873C66.9635 19.6404 66.791 19.0805 66.791 18.5076H69.457C69.4701 18.8917 69.5677 19.2009 69.75 19.4353C69.9388 19.6697 70.1764 19.8389 70.4629 19.9431C70.7559 20.0473 71.0716 20.0994 71.4102 20.0994C71.7747 20.0994 72.0775 20.0505 72.3184 19.9529C72.5592 19.8487 72.7415 19.712 72.8652 19.5427C72.9954 19.3669 73.0605 19.1651 73.0605 18.9373ZM82.7969 11.2908V13.283H76.6445V11.2908H82.7969ZM78.168 8.68335H80.9805V18.6736C80.9805 18.9796 81.0195 19.2139 81.0977 19.3767C81.1823 19.5395 81.306 19.6534 81.4688 19.7185C81.6315 19.7771 81.8366 19.8064 82.084 19.8064C82.2598 19.8064 82.416 19.7999 82.5527 19.7869C82.696 19.7673 82.8164 19.7478 82.9141 19.7283L82.9238 21.7986C82.6829 21.8767 82.4225 21.9386 82.1426 21.9841C81.8626 22.0297 81.5534 22.0525 81.2148 22.0525C80.5964 22.0525 80.056 21.9516 79.5938 21.7498C79.138 21.5414 78.7865 21.2094 78.5391 20.7537C78.2917 20.2979 78.168 19.699 78.168 18.9568V8.68335ZM87.2109 13.322V25.9197H84.3984V11.2908H87.0059L87.2109 13.322ZM93.9004 16.4568V16.6619C93.9004 17.4301 93.8092 18.143 93.627 18.8005C93.4512 19.4581 93.1908 20.031 92.8457 20.5193C92.5007 21.0011 92.071 21.3787 91.5566 21.6521C91.0488 21.919 90.4629 22.0525 89.7988 22.0525C89.1543 22.0525 88.5944 21.9223 88.1191 21.6619C87.6439 21.4014 87.2435 21.0369 86.918 20.5681C86.599 20.0929 86.3418 19.5427 86.1465 18.9177C85.9512 18.2927 85.8014 17.6222 85.6973 16.906V16.3689C85.8014 15.6007 85.9512 14.8975 86.1465 14.2595C86.3418 13.615 86.599 13.0583 86.918 12.5896C87.2435 12.1143 87.6406 11.7465 88.1094 11.4861C88.5846 11.2257 89.1413 11.0955 89.7793 11.0955C90.4499 11.0955 91.0391 11.2224 91.5469 11.4763C92.0612 11.7302 92.4909 12.0948 92.8359 12.5701C93.1875 13.0453 93.4512 13.6117 93.627 14.2693C93.8092 14.9268 93.9004 15.656 93.9004 16.4568ZM91.0781 16.6619V16.4568C91.0781 16.0076 91.0391 15.5942 90.9609 15.2166C90.8893 14.8324 90.7721 14.4972 90.6094 14.2107C90.4531 13.9242 90.2448 13.7029 89.9844 13.5466C89.7305 13.3839 89.4212 13.3025 89.0566 13.3025C88.6725 13.3025 88.3438 13.3643 88.0703 13.488C87.8034 13.6117 87.5853 13.7908 87.416 14.0251C87.2467 14.2595 87.1198 14.5395 87.0352 14.865C86.9505 15.1905 86.8984 15.5583 86.8789 15.9685V17.3259C86.9115 17.8077 87.0026 18.2406 87.1523 18.6248C87.3021 19.0024 87.5332 19.3018 87.8457 19.5232C88.1582 19.7445 88.5684 19.8552 89.0762 19.8552C89.4473 19.8552 89.7598 19.7738 90.0137 19.6111C90.2676 19.4418 90.4727 19.2107 90.6289 18.9177C90.7917 18.6248 90.9056 18.2862 90.9707 17.9021C91.0423 17.518 91.0781 17.1046 91.0781 16.6619ZM98.6172 11.2908V21.8572H95.7949V11.2908H98.6172ZM95.6191 8.53687C95.6191 8.12671 95.7624 7.78817 96.0488 7.52124C96.3353 7.25431 96.7194 7.12085 97.2012 7.12085C97.6764 7.12085 98.0573 7.25431 98.3438 7.52124C98.6367 7.78817 98.7832 8.12671 98.7832 8.53687C98.7832 8.94702 98.6367 9.28556 98.3438 9.55249C98.0573 9.81942 97.6764 9.95288 97.2012 9.95288C96.7194 9.95288 96.3353 9.81942 96.0488 9.55249C95.7624 9.28556 95.6191 8.94702 95.6191 8.53687ZM103.91 6.85718V21.8572H101.088V6.85718H103.91ZM105.785 16.6814V16.4763C105.785 15.7016 105.896 14.9887 106.117 14.3376C106.339 13.6801 106.661 13.1104 107.084 12.6287C107.507 12.1469 108.028 11.7725 108.646 11.5056C109.265 11.2322 109.975 11.0955 110.775 11.0955C111.576 11.0955 112.289 11.2322 112.914 11.5056C113.539 11.7725 114.063 12.1469 114.486 12.6287C114.916 13.1104 115.242 13.6801 115.463 14.3376C115.684 14.9887 115.795 15.7016 115.795 16.4763V16.6814C115.795 17.4496 115.684 18.1625 115.463 18.8201C115.242 19.4711 114.916 20.0408 114.486 20.5291C114.063 21.0108 113.542 21.3852 112.924 21.6521C112.305 21.919 111.596 22.0525 110.795 22.0525C109.994 22.0525 109.281 21.919 108.656 21.6521C108.038 21.3852 107.514 21.0108 107.084 20.5291C106.661 20.0408 106.339 19.4711 106.117 18.8201C105.896 18.1625 105.785 17.4496 105.785 16.6814ZM108.598 16.4763V16.6814C108.598 17.1241 108.637 17.5375 108.715 17.9216C108.793 18.3057 108.917 18.6443 109.086 18.9373C109.262 19.2237 109.49 19.4483 109.77 19.6111C110.049 19.7738 110.391 19.8552 110.795 19.8552C111.186 19.8552 111.521 19.7738 111.801 19.6111C112.081 19.4483 112.305 19.2237 112.475 18.9373C112.644 18.6443 112.768 18.3057 112.846 17.9216C112.93 17.5375 112.973 17.1241 112.973 16.6814V16.4763C112.973 16.0466 112.93 15.643 112.846 15.2654C112.768 14.8813 112.641 14.5427 112.465 14.2498C112.296 13.9503 112.071 13.7159 111.791 13.5466C111.511 13.3774 111.173 13.2927 110.775 13.2927C110.378 13.2927 110.04 13.3774 109.76 13.5466C109.486 13.7159 109.262 13.9503 109.086 14.2498C108.917 14.5427 108.793 14.8813 108.715 15.2654C108.637 15.643 108.598 16.0466 108.598 16.4763ZM122.699 11.2908V13.283H116.547V11.2908H122.699ZM118.07 8.68335H120.883V18.6736C120.883 18.9796 120.922 19.2139 121 19.3767C121.085 19.5395 121.208 19.6534 121.371 19.7185C121.534 19.7771 121.739 19.8064 121.986 19.8064C122.162 19.8064 122.318 19.7999 122.455 19.7869C122.598 19.7673 122.719 19.7478 122.816 19.7283L122.826 21.7986C122.585 21.8767 122.325 21.9386 122.045 21.9841C121.765 22.0297 121.456 22.0525 121.117 22.0525C120.499 22.0525 119.958 21.9516 119.496 21.7498C119.04 21.5414 118.689 21.2094 118.441 20.7537C118.194 20.2979 118.07 19.699 118.07 18.9568V8.68335Z" fill="black"/>
<rect width="40" height="40" transform="translate(0 45.7142)" fill="#219653"/>
<path d="M20 73.0664L26.0833 71.4375L28.625 79.7142L20 73.0664ZM34 62.3683H23.2917L20 51.7142L16.7083 62.3683H6L14.6667 68.9721L11.375 79.6262L20.0417 73.0224L25.375 68.9721L34 62.3683Z" fill="white"/>
<rect width="40" height="40" transform="translate(48 45.7142)" fill="#219653"/>
<path d="M68 73.0664L74.0833 71.4375L76.625 79.7142L68 73.0664ZM82 62.3683H71.2917L68 51.7142L64.7083 62.3683H54L62.6667 68.9721L59.375 79.6262L68.0417 73.0224L73.375 68.9721L82 62.3683Z" fill="white"/>
<rect width="40" height="40" transform="translate(96 45.7142)" fill="#219653"/>
<path d="M116 73.0664L122.083 71.4375L124.625 79.7142L116 73.0664ZM130 62.3683H119.292L116 51.7142L112.708 62.3683H102L110.667 68.9721L107.375 79.6262L116.042 73.0224L121.375 68.9721L130 62.3683Z" fill="white"/>
<rect width="40" height="40" transform="translate(144 45.7142)" fill="#219653"/>
<path d="M164 73.0664L170.083 71.4375L172.625 79.7142L164 73.0664ZM178 62.3683H167.292L164 51.7142L160.708 62.3683H150L158.667 68.9721L155.375 79.6262L164.042 73.0224L169.375 68.9721L178 62.3683Z" fill="white"/>
<rect width="40" height="40" transform="translate(192 45.7142)" fill="#219653"/>
<path d="M212 73.0664L218.083 71.4375L220.625 79.7142L212 73.0664ZM226 62.3683H215.292L212 51.7142L208.708 62.3683H198L206.667 68.9721L203.375 79.6262L212.042 73.0224L217.375 68.9721L226 62.3683Z" fill="white"/>
</svg>
